 http://www.imdb.com/title/tt1636826/


Projekt X "Hemmafesten"



General
Complete name:Project.X.2012.EXTENDED.SWESUB.480p.BluRay.XviD.AC3-5.1-Happyviking
Format                           : AVI
Format/Info                      : Audio Video Interleave
File size                        : 1.37 GiB
Duration                         : 1h 32mn
Overall bit rate                 : 2 105 Kbps
Writing application              : VirtualDubMod 1.5.10.2 (build 2542/release)
Writing library                  : VirtualDubMod build 2542/release

Video
ID                               : 0
Format                           : MPEG-4 Visual
Format profile                   : Advanced Simple@L5
Format settings, BVOP            : 1
Format settings, QPel            : No
Format settings, GMC             : No warppoints
Format settings, Matrix          : Default (H.263)
Muxing mode                      : Packed bitstream
Codec ID                         : XVID
Codec ID/Hint                    : XviD
Duration                         : 1h 32mn
Bit rate                         : 1 457 Kbps
Width                            : 720 pixels
Height                           : 400 pixels
Display aspect ratio             : 16:9
Frame rate                       : 23.976 fps
Color space                      : YUV
Chroma subsampling               : 4:2:0
Bit depth                        : 8 bits
Scan type                        : Progressive
Compression mode                 : Lossy
Bits/(Pixel*Frame)               : 0.211
Stream size                      : 969 MiB (69%)
Writing library                  : XviD 1.2.1 (UTC 2008-12-04)

Audio
ID                               : 1
Format                           : AC-3
Format/Info                      : Audio Coding 3
Mode extension                   : CM (complete main)
Codec ID                         : 2000
Duration                         : 1h 32mn
Bit rate mode                    : Constant
Bit rate                         : 640 Kbps
Channel(s)                       : 6 channels
Channel positions                : Front: L C R, Side: L R, LFE
Sampling rate                    : 48.0 KHz
Bit depth                        : 16 bits
Compression mode                 : Lossy
Stream size                      : 426 MiB (30%)
Alignment                        : Split accross interleaves
Interleave, duration             : 64 ms (1.53 video frames)
Interleave, preload duration     : 500 ms

 
http://www.shotpix.com/images/46952244965655958660.jpg 
http://www.shotpix.com/images/04399246459853520674.jpg 
http://www.shotpix.com/images/58533845844453867526.jpg 
http://www.shotpix.com/images/24749251994942085733.jpg 
http://www.shotpix.com/images/14427208760829927921.jpg 
http://www.shotpix.com/images/46852000898119424027.jpg 
http://www.shotpix.com/images/70322938999910329282.jpg


